<svg width="184" height="184" viewBox="0 0 184 184" fill="none" xmlns="http://www.w3.org/2000/svg">
<path d="M0 2C0 0.895431 0.895431 0 2 0C3.10457 0 4 0.895431 4 2C4 3.10457 3.10457 4 2 4C0.895431 4 0 3.10457 0 2Z" fill="#072456" fill-opacity="0.15"/>
<path d="M20 2C20 0.895431 20.8954 0 22 0C23.1046 0 24 0.895431 24 2C24 3.10457 23.1046 4 22 4C20.8954 4 20 3.10457 20 2Z" fill="#072456" fill-opacity="0.15"/>
<path d="M40 2C40 0.895431 40.8954 0 42 0C43.1046 0 44 0.895431 44 2C44 3.10457 43.1046 4 42 4C40.8954 4 40 3.10457 40 2Z" fill="#072456" fill-opacity="0.15"/>
<path d="M60 2C60 0.895431 60.8954 0 62 0C63.1046 0 64 0.895431 64 2C64 3.10457 63.1046 4 62 4C60.8954 4 60 3.10457 60 2Z" fill="#072456" fill-opacity="0.15"/>
<path d="M80 2C80 0.895431 80.8954 0 82 0C83.1046 0 84 0.895431 84 2C84 3.10457 83.1046 4 82 4C80.8954 4 80 3.10457 80 2Z" fill="#072456" fill-opacity="0.15"/>
<path d="M100 2C100 0.895431 100.895 0 102 0C103.105 0 104 0.895431 104 2C104 3.10457 103.105 4 102 4C100.895 4 100 3.10457 100 2Z" fill="#072456" fill-opacity="0.15"/>
<path d="M120 2C120 0.895431 120.895 0 122 0C123.105 0 124 0.895431 124 2C124 3.10457 123.105 4 122 4C120.895 4 120 3.10457 120 2Z" fill="#072456" fill-opacity="0.15"/>
<path d="M140 2C140 0.895431 140.895 0 142 0C143.105 0 144 0.895431 144 2C144 3.10457 143.105 4 142 4C140.895 4 140 3.10457 140 2Z" fill="#072456" fill-opacity="0.15"/>
<path d="M160 2C160 0.895431 160.895 0 162 0C163.105 0 164 0.895431 164 2C164 3.10457 163.105 4 162 4C160.895 4 160 3.10457 160 2Z" fill="#072456" fill-opacity="0.15"/>
<path d="M180 2C180 0.895431 180.895 0 182 0C183.105 0 184 0.895431 184 2C184 3.10457 183.105 4 182 4C180.895 4 180 3.10457 180 2Z" fill="#072456" fill-opacity="0.15"/>
<path d="M0 22C0 20.8954 0.895431 20 2 20C3.10457 20 4 20.8954 4 22C4 23.1046 3.10457 24 2 24C0.895431 24 0 23.1046 0 22Z" fill="#072456" fill-opacity="0.15"/>
<path d="M20 22C20 20.8954 20.8954 20 22 20C23.1046 20 24 20.8954 24 22C24 23.1046 23.1046 24 22 24C20.8954 24 20 23.1046 20 22Z" fill="#072456" fill-opacity="0.15"/>
<path d="M40 22C40 20.8954 40.8954 20 42 20C43.1046 20 44 20.8954 44 22C44 23.1046 43.1046 24 42 24C40.8954 24 40 23.1046 40 22Z" fill="#072456" fill-opacity="0.15"/>
<path d="M60 22C60 20.8954 60.8954 20 62 20C63.1046 20 64 20.8954 64 22C64 23.1046 63.1046 24 62 24C60.8954 24 60 23.1046 60 22Z" fill="#072456" fill-opacity="0.15"/>
<path d="M80 22C80 20.8954 80.8954 20 82 20C83.1046 20 84 20.8954 84 22C84 23.1046 83.1046 24 82 24C80.8954 24 80 23.1046 80 22Z" fill="#072456" fill-opacity="0.15"/>
<path d="M100 22C100 20.8954 100.895 20 102 20C103.105 20 104 20.8954 104 22C104 23.1046 103.105 24 102 24C100.895 24 100 23.1046 100 22Z" fill="#072456" fill-opacity="0.15"/>
<path d="M120 22C120 20.8954 120.895 20 122 20C123.105 20 124 20.8954 124 22C124 23.1046 123.105 24 122 24C120.895 24 120 23.1046 120 22Z" fill="#072456" fill-opacity="0.15"/>
<path d="M140 22C140 20.8954 140.895 20 142 20C143.105 20 144 20.8954 144 22C144 23.1046 143.105 24 142 24C140.895 24 140 23.1046 140 22Z" fill="#072456" fill-opacity="0.15"/>
<path d="M160 22C160 20.8954 160.895 20 162 20C163.105 20 164 20.8954 164 22C164 23.1046 163.105 24 162 24C160.895 24 160 23.1046 160 22Z" fill="#072456" fill-opacity="0.15"/>
<path d="M180 22C180 20.8954 180.895 20 182 20C183.105 20 184 20.8954 184 22C184 23.1046 183.105 24 182 24C180.895 24 180 23.1046 180 22Z" fill="#072456" fill-opacity="0.15"/>
<path d="M0 42C0 40.8954 0.895431 40 2 40C3.10457 40 4 40.8954 4 42C4 43.1046 3.10457 44 2 44C0.895431 44 0 43.1046 0 42Z" fill="#072456" fill-opacity="0.15"/>
<path d="M20 42C20 40.8954 20.8954 40 22 40C23.1046 40 24 40.8954 24 42C24 43.1046 23.1046 44 22 44C20.8954 44 20 43.1046 20 42Z" fill="#072456" fill-opacity="0.15"/>
<path d="M40 42C40 40.8954 40.8954 40 42 40C43.1046 40 44 40.8954 44 42C44 43.1046 43.1046 44 42 44C40.8954 44 40 43.1046 40 42Z" fill="#072456" fill-opacity="0.15"/>
<path d="M60 42C60 40.8954 60.8954 40 62 40C63.1046 40 64 40.8954 64 42C64 43.1046 63.1046 44 62 44C60.8954 44 60 43.1046 60 42Z" fill="#072456" fill-opacity="0.15"/>
<path d="M80 42C80 40.8954 80.8954 40 82 40C83.1046 40 84 40.8954 84 42C84 43.1046 83.1046 44 82 44C80.8954 44 80 43.1046 80 42Z" fill="#072456" fill-opacity="0.15"/>
<path d="M100 42C100 40.8954 100.895 40 102 40C103.105 40 104 40.8954 104 42C104 43.1046 103.105 44 102 44C100.895 44 100 43.1046 100 42Z" fill="#072456" fill-opacity="0.15"/>
<path d="M120 42C120 40.8954 120.895 40 122 40C123.105 40 124 40.8954 124 42C124 43.1046 123.105 44 122 44C120.895 44 120 43.1046 120 42Z" fill="#072456" fill-opacity="0.15"/>
<path d="M140 42C140 40.8954 140.895 40 142 40C143.105 40 144 40.8954 144 42C144 43.1046 143.105 44 142 44C140.895 44 140 43.1046 140 42Z" fill="#072456" fill-opacity="0.15"/>
<path d="M160 42C160 40.8954 160.895 40 162 40C163.105 40 164 40.8954 164 42C164 43.1046 163.105 44 162 44C160.895 44 160 43.1046 160 42Z" fill="#072456" fill-opacity="0.15"/>
<path d="M180 42C180 40.8954 180.895 40 182 40C183.105 40 184 40.8954 184 42C184 43.1046 183.105 44 182 44C180.895 44 180 43.1046 180 42Z" fill="#072456" fill-opacity="0.15"/>
<path d="M0 62C0 60.8954 0.895431 60 2 60C3.10457 60 4 60.8954 4 62C4 63.1046 3.10457 64 2 64C0.895431 64 0 63.1046 0 62Z" fill="#072456" fill-opacity="0.15"/>
<path d="M20 62C20 60.8954 20.8954 60 22 60C23.1046 60 24 60.8954 24 62C24 63.1046 23.1046 64 22 64C20.8954 64 20 63.1046 20 62Z" fill="#072456" fill-opacity="0.15"/>
<path d="M40 62C40 60.8954 40.8954 60 42 60C43.1046 60 44 60.8954 44 62C44 63.1046 43.1046 64 42 64C40.8954 64 40 63.1046 40 62Z" fill="#072456" fill-opacity="0.15"/>
<path d="M60 62C60 60.8954 60.8954 60 62 60C63.1046 60 64 60.8954 64 62C64 63.1046 63.1046 64 62 64C60.8954 64 60 63.1046 60 62Z" fill="#072456" fill-opacity="0.15"/>
<path d="M80 62C80 60.8954 80.8954 60 82 60C83.1046 60 84 60.8954 84 62C84 63.1046 83.1046 64 82 64C80.8954 64 80 63.1046 80 62Z" fill="#072456" fill-opacity="0.15"/>
<path d="M100 62C100 60.8954 100.895 60 102 60C103.105 60 104 60.8954 104 62C104 63.1046 103.105 64 102 64C100.895 64 100 63.1046 100 62Z" fill="#072456" fill-opacity="0.15"/>
<path d="M120 62C120 60.8954 120.895 60 122 60C123.105 60 124 60.8954 124 62C124 63.1046 123.105 64 122 64C120.895 64 120 63.1046 120 62Z" fill="#072456" fill-opacity="0.15"/>
<path d="M140 62C140 60.8954 140.895 60 142 60C143.105 60 144 60.8954 144 62C144 63.1046 143.105 64 142 64C140.895 64 140 63.1046 140 62Z" fill="#072456" fill-opacity="0.15"/>
<path d="M160 62C160 60.8954 160.895 60 162 60C163.105 60 164 60.8954 164 62C164 63.1046 163.105 64 162 64C160.895 64 160 63.1046 160 62Z" fill="#072456" fill-opacity="0.15"/>
<path d="M180 62C180 60.8954 180.895 60 182 60C183.105 60 184 60.8954 184 62C184 63.1046 183.105 64 182 64C180.895 64 180 63.1046 180 62Z" fill="#072456" fill-opacity="0.15"/>
<path d="M0 82C0 80.8954 0.895431 80 2 80C3.10457 80 4 80.8954 4 82C4 83.1046 3.10457 84 2 84C0.895431 84 0 83.1046 0 82Z" fill="#072456" fill-opacity="0.15"/>
<path d="M20 82C20 80.8954 20.8954 80 22 80C23.1046 80 24 80.8954 24 82C24 83.1046 23.1046 84 22 84C20.8954 84 20 83.1046 20 82Z" fill="#072456" fill-opacity="0.15"/>
<path d="M40 82C40 80.8954 40.8954 80 42 80C43.1046 80 44 80.8954 44 82C44 83.1046 43.1046 84 42 84C40.8954 84 40 83.1046 40 82Z" fill="#072456" fill-opacity="0.15"/>
<path d="M60 82C60 80.8954 60.8954 80 62 80C63.1046 80 64 80.8954 64 82C64 83.1046 63.1046 84 62 84C60.8954 84 60 83.1046 60 82Z" fill="#072456" fill-opacity="0.15"/>
<path d="M80 82C80 80.8954 80.8954 80 82 80C83.1046 80 84 80.8954 84 82C84 83.1046 83.1046 84 82 84C80.8954 84 80 83.1046 80 82Z" fill="#072456" fill-opacity="0.15"/>
<path d="M100 82C100 80.8954 100.895 80 102 80C103.105 80 104 80.8954 104 82C104 83.1046 103.105 84 102 84C100.895 84 100 83.1046 100 82Z" fill="#072456" fill-opacity="0.15"/>
<path d="M120 82C120 80.8954 120.895 80 122 80C123.105 80 124 80.8954 124 82C124 83.1046 123.105 84 122 84C120.895 84 120 83.1046 120 82Z" fill="#072456" fill-opacity="0.15"/>
<path d="M140 82C140 80.8954 140.895 80 142 80C143.105 80 144 80.8954 144 82C144 83.1046 143.105 84 142 84C140.895 84 140 83.1046 140 82Z" fill="#072456" fill-opacity="0.15"/>
<path d="M160 82C160 80.8954 160.895 80 162 80C163.105 80 164 80.8954 164 82C164 83.1046 163.105 84 162 84C160.895 84 160 83.1046 160 82Z" fill="#072456" fill-opacity="0.15"/>
<path d="M180 82C180 80.8954 180.895 80 182 80C183.105 80 184 80.8954 184 82C184 83.1046 183.105 84 182 84C180.895 84 180 83.1046 180 82Z" fill="#072456" fill-opacity="0.15"/>
<path d="M0 102C0 100.895 0.895431 100 2 100C3.10457 100 4 100.895 4 102C4 103.105 3.10457 104 2 104C0.895431 104 0 103.105 0 102Z" fill="#072456" fill-opacity="0.15"/>
<path d="M20 102C20 100.895 20.8954 100 22 100C23.1046 100 24 100.895 24 102C24 103.105 23.1046 104 22 104C20.8954 104 20 103.105 20 102Z" fill="#072456" fill-opacity="0.15"/>
<path d="M40 102C40 100.895 40.8954 100 42 100C43.1046 100 44 100.895 44 102C44 103.105 43.1046 104 42 104C40.8954 104 40 103.105 40 102Z" fill="#072456" fill-opacity="0.15"/>
<path d="M60 102C60 100.895 60.8954 100 62 100C63.1046 100 64 100.895 64 102C64 103.105 63.1046 104 62 104C60.8954 104 60 103.105 60 102Z" fill="#072456" fill-opacity="0.15"/>
<path d="M80 102C80 100.895 80.8954 100 82 100C83.1046 100 84 100.895 84 102C84 103.105 83.1046 104 82 104C80.8954 104 80 103.105 80 102Z" fill="#072456" fill-opacity="0.15"/>
<path d="M100 102C100 100.895 100.895 100 102 100C103.105 100 104 100.895 104 102C104 103.105 103.105 104 102 104C100.895 104 100 103.105 100 102Z" fill="#072456" fill-opacity="0.15"/>
<path d="M120 102C120 100.895 120.895 100 122 100C123.105 100 124 100.895 124 102C124 103.105 123.105 104 122 104C120.895 104 120 103.105 120 102Z" fill="#072456" fill-opacity="0.15"/>
<path d="M140 102C140 100.895 140.895 100 142 100C143.105 100 144 100.895 144 102C144 103.105 143.105 104 142 104C140.895 104 140 103.105 140 102Z" fill="#072456" fill-opacity="0.15"/>
<path d="M160 102C160 100.895 160.895 100 162 100C163.105 100 164 100.895 164 102C164 103.105 163.105 104 162 104C160.895 104 160 103.105 160 102Z" fill="#072456" fill-opacity="0.15"/>
<path d="M180 102C180 100.895 180.895 100 182 100C183.105 100 184 100.895 184 102C184 103.105 183.105 104 182 104C180.895 104 180 103.105 180 102Z" fill="#072456" fill-opacity="0.15"/>
<path d="M0 122C0 120.895 0.895431 120 2 120C3.10457 120 4 120.895 4 122C4 123.105 3.10457 124 2 124C0.895431 124 0 123.105 0 122Z" fill="#072456" fill-opacity="0.15"/>
<path d="M20 122C20 120.895 20.8954 120 22 120C23.1046 120 24 120.895 24 122C24 123.105 23.1046 124 22 124C20.8954 124 20 123.105 20 122Z" fill="#072456" fill-opacity="0.15"/>
<path d="M40 122C40 120.895 40.8954 120 42 120C43.1046 120 44 120.895 44 122C44 123.105 43.1046 124 42 124C40.8954 124 40 123.105 40 122Z" fill="#072456" fill-opacity="0.15"/>
<path d="M60 122C60 120.895 60.8954 120 62 120C63.1046 120 64 120.895 64 122C64 123.105 63.1046 124 62 124C60.8954 124 60 123.105 60 122Z" fill="#072456" fill-opacity="0.15"/>
<path d="M80 122C80 120.895 80.8954 120 82 120C83.1046 120 84 120.895 84 122C84 123.105 83.1046 124 82 124C80.8954 124 80 123.105 80 122Z" fill="#072456" fill-opacity="0.15"/>
<path d="M100 122C100 120.895 100.895 120 102 120C103.105 120 104 120.895 104 122C104 123.105 103.105 124 102 124C100.895 124 100 123.105 100 122Z" fill="#072456" fill-opacity="0.15"/>
<path d="M120 122C120 120.895 120.895 120 122 120C123.105 120 124 120.895 124 122C124 123.105 123.105 124 122 124C120.895 124 120 123.105 120 122Z" fill="#072456" fill-opacity="0.15"/>
<path d="M140 122C140 120.895 140.895 120 142 120C143.105 120 144 120.895 144 122C144 123.105 143.105 124 142 124C140.895 124 140 123.105 140 122Z" fill="#072456" fill-opacity="0.15"/>
<path d="M160 122C160 120.895 160.895 120 162 120C163.105 120 164 120.895 164 122C164 123.105 163.105 124 162 124C160.895 124 160 123.105 160 122Z" fill="#072456" fill-opacity="0.15"/>
<path d="M180 122C180 120.895 180.895 120 182 120C183.105 120 184 120.895 184 122C184 123.105 183.105 124 182 124C180.895 124 180 123.105 180 122Z" fill="#072456" fill-opacity="0.15"/>
<path d="M0 142C0 140.895 0.895431 140 2 140C3.10457 140 4 140.895 4 142C4 143.105 3.10457 144 2 144C0.895431 144 0 143.105 0 142Z" fill="#072456" fill-opacity="0.15"/>
<path d="M20 142C20 140.895 20.8954 140 22 140C23.1046 140 24 140.895 24 142C24 143.105 23.1046 144 22 144C20.8954 144 20 143.105 20 142Z" fill="#072456" fill-opacity="0.15"/>
<path d="M40 142C40 140.895 40.8954 140 42 140C43.1046 140 44 140.895 44 142C44 143.105 43.1046 144 42 144C40.8954 144 40 143.105 40 142Z" fill="#072456" fill-opacity="0.15"/>
<path d="M60 142C60 140.895 60.8954 140 62 140C63.1046 140 64 140.895 64 142C64 143.105 63.1046 144 62 144C60.8954 144 60 143.105 60 142Z" fill="#072456" fill-opacity="0.15"/>
<path d="M80 142C80 140.895 80.8954 140 82 140C83.1046 140 84 140.895 84 142C84 143.105 83.1046 144 82 144C80.8954 144 80 143.105 80 142Z" fill="#072456" fill-opacity="0.15"/>
<path d="M100 142C100 140.895 100.895 140 102 140C103.105 140 104 140.895 104 142C104 143.105 103.105 144 102 144C100.895 144 100 143.105 100 142Z" fill="#072456" fill-opacity="0.15"/>
<path d="M120 142C120 140.895 120.895 140 122 140C123.105 140 124 140.895 124 142C124 143.105 123.105 144 122 144C120.895 144 120 143.105 120 142Z" fill="#072456" fill-opacity="0.15"/>
<path d="M140 142C140 140.895 140.895 140 142 140C143.105 140 144 140.895 144 142C144 143.105 143.105 144 142 144C140.895 144 140 143.105 140 142Z" fill="#072456" fill-opacity="0.15"/>
<path d="M160 142C160 140.895 160.895 140 162 140C163.105 140 164 140.895 164 142C164 143.105 163.105 144 162 144C160.895 144 160 143.105 160 142Z" fill="#072456" fill-opacity="0.15"/>
<path d="M180 142C180 140.895 180.895 140 182 140C183.105 140 184 140.895 184 142C184 143.105 183.105 144 182 144C180.895 144 180 143.105 180 142Z" fill="#072456" fill-opacity="0.15"/>
<path d="M0 162C0 160.895 0.895431 160 2 160C3.10457 160 4 160.895 4 162C4 163.105 3.10457 164 2 164C0.895431 164 0 163.105 0 162Z" fill="#072456" fill-opacity="0.15"/>
<path d="M20 162C20 160.895 20.8954 160 22 160C23.1046 160 24 160.895 24 162C24 163.105 23.1046 164 22 164C20.8954 164 20 163.105 20 162Z" fill="#072456" fill-opacity="0.15"/>
<path d="M40 162C40 160.895 40.8954 160 42 160C43.1046 160 44 160.895 44 162C44 163.105 43.1046 164 42 164C40.8954 164 40 163.105 40 162Z" fill="#072456" fill-opacity="0.15"/>
<path d="M60 162C60 160.895 60.8954 160 62 160C63.1046 160 64 160.895 64 162C64 163.105 63.1046 164 62 164C60.8954 164 60 163.105 60 162Z" fill="#072456" fill-opacity="0.15"/>
<path d="M80 162C80 160.895 80.8954 160 82 160C83.1046 160 84 160.895 84 162C84 163.105 83.1046 164 82 164C80.8954 164 80 163.105 80 162Z" fill="#072456" fill-opacity="0.15"/>
<path d="M100 162C100 160.895 100.895 160 102 160C103.105 160 104 160.895 104 162C104 163.105 103.105 164 102 164C100.895 164 100 163.105 100 162Z" fill="#072456" fill-opacity="0.15"/>
<path d="M120 162C120 160.895 120.895 160 122 160C123.105 160 124 160.895 124 162C124 163.105 123.105 164 122 164C120.895 164 120 163.105 120 162Z" fill="#072456" fill-opacity="0.15"/>
<path d="M140 162C140 160.895 140.895 160 142 160C143.105 160 144 160.895 144 162C144 163.105 143.105 164 142 164C140.895 164 140 163.105 140 162Z" fill="#072456" fill-opacity="0.15"/>
<path d="M160 162C160 160.895 160.895 160 162 160C163.105 160 164 160.895 164 162C164 163.105 163.105 164 162 164C160.895 164 160 163.105 160 162Z" fill="#072456" fill-opacity="0.15"/>
<path d="M180 162C180 160.895 180.895 160 182 160C183.105 160 184 160.895 184 162C184 163.105 183.105 164 182 164C180.895 164 180 163.105 180 162Z" fill="#072456" fill-opacity="0.15"/>
<path d="M0 182C0 180.895 0.895431 180 2 180C3.10457 180 4 180.895 4 182C4 183.105 3.10457 184 2 184C0.895431 184 0 183.105 0 182Z" fill="#072456" fill-opacity="0.15"/>
<path d="M20 182C20 180.895 20.8954 180 22 180C23.1046 180 24 180.895 24 182C24 183.105 23.1046 184 22 184C20.8954 184 20 183.105 20 182Z" fill="#072456" fill-opacity="0.15"/>
<path d="M40 182C40 180.895 40.8954 180 42 180C43.1046 180 44 180.895 44 182C44 183.105 43.1046 184 42 184C40.8954 184 40 183.105 40 182Z" fill="#072456" fill-opacity="0.15"/>
<path d="M60 182C60 180.895 60.8954 180 62 180C63.1046 180 64 180.895 64 182C64 183.105 63.1046 184 62 184C60.8954 184 60 183.105 60 182Z" fill="#072456" fill-opacity="0.15"/>
<path d="M80 182C80 180.895 80.8954 180 82 180C83.1046 180 84 180.895 84 182C84 183.105 83.1046 184 82 184C80.8954 184 80 183.105 80 182Z" fill="#072456" fill-opacity="0.15"/>
<path d="M100 182C100 180.895 100.895 180 102 180C103.105 180 104 180.895 104 182C104 183.105 103.105 184 102 184C100.895 184 100 183.105 100 182Z" fill="#072456" fill-opacity="0.15"/>
<path d="M120 182C120 180.895 120.895 180 122 180C123.105 180 124 180.895 124 182C124 183.105 123.105 184 122 184C120.895 184 120 183.105 120 182Z" fill="#072456" fill-opacity="0.15"/>
<path d="M140 182C140 180.895 140.895 180 142 180C143.105 180 144 180.895 144 182C144 183.105 143.105 184 142 184C140.895 184 140 183.105 140 182Z" fill="#072456" fill-opacity="0.15"/>
<path d="M160 182C160 180.895 160.895 180 162 180C163.105 180 164 180.895 164 182C164 183.105 163.105 184 162 184C160.895 184 160 183.105 160 182Z" fill="#072456" fill-opacity="0.15"/>
<path d="M180 182C180 180.895 180.895 180 182 180C183.105 180 184 180.895 184 182C184 183.105 183.105 184 182 184C180.895 184 180 183.105 180 182Z" fill="#072456" fill-opacity="0.15"/>
</svg>
